<svg width="20" height="20" viewBox="0 0 20 20" fill="none" xmlns="http://www.w3.org/2000/svg">
<path d="M10.2335 7.26721C8.59879 7.26721 7.26474 8.60126 7.26474 10.236C7.26474 11.8707 8.59879 13.2047 10.2335 13.2047C11.8682 13.2047 13.2022 11.8707 13.2022 10.236C13.2022 8.60126 11.8682 7.26721 10.2335 7.26721ZM19.1375 10.236C19.1375 9.00659 19.1487 7.78836 19.0796 6.56121C19.0106 5.13586 18.6854 3.87085 17.6431 2.82856C16.5986 1.78404 15.3358 1.4611 13.9105 1.39206C12.6811 1.32302 11.4629 1.33416 10.2357 1.33416C9.00635 1.33416 7.78811 1.32302 6.56097 1.39206C5.13561 1.4611 3.87061 1.78626 2.82831 2.82856C1.78379 3.87308 1.46086 5.13586 1.39182 6.56121C1.32278 7.79059 1.33391 9.00882 1.33391 10.236C1.33391 11.4631 1.32278 12.6836 1.39182 13.9107C1.46086 15.3361 1.78602 16.6011 2.82831 17.6434C3.87283 18.6879 5.13561 19.0108 6.56097 19.0799C7.79034 19.1489 9.00858 19.1378 10.2357 19.1378C11.4651 19.1378 12.6833 19.1489 13.9105 19.0799C15.3358 19.0108 16.6008 18.6857 17.6431 17.6434C18.6876 16.5989 19.0106 15.3361 19.0796 13.9107C19.1509 12.6836 19.1375 11.4653 19.1375 10.236ZM10.2335 14.8038C7.70571 14.8038 5.66567 12.7637 5.66567 10.236C5.66567 7.70818 7.70571 5.66814 10.2335 5.66814C12.7613 5.66814 14.8013 7.70818 14.8013 10.236C14.8013 12.7637 12.7613 14.8038 10.2335 14.8038ZM14.9884 6.54785C14.3982 6.54785 13.9216 6.07125 13.9216 5.48106C13.9216 4.89087 14.3982 4.41427 14.9884 4.41427C15.5786 4.41427 16.0552 4.89087 16.0552 5.48106C16.0554 5.6212 16.0279 5.76 15.9743 5.88951C15.9208 6.01902 15.8422 6.13669 15.7431 6.23579C15.644 6.33488 15.5264 6.41346 15.3969 6.467C15.2673 6.52055 15.1285 6.54803 14.9884 6.54785Z" fill="#A1724B"/>
</svg>
