<svg width="15" height="15" viewBox="0 0 15 15" fill="none" xmlns="http://www.w3.org/2000/svg">
<path d="M13.3023 5.17237L9.58306 4.63184L7.92046 1.26124C7.87505 1.16895 7.80034 1.09424 7.70806 1.04883C7.47661 0.934576 7.19536 1.02979 7.07964 1.26124L5.41704 4.63184L1.6978 5.17237C1.59527 5.18702 1.50152 5.23536 1.42974 5.3086C1.34296 5.39779 1.29515 5.51778 1.29679 5.64221C1.29844 5.76663 1.34942 5.88531 1.43853 5.97217L4.12945 8.59571L3.4937 12.3003C3.47879 12.3865 3.48833 12.4751 3.52123 12.5561C3.55413 12.6372 3.60908 12.7074 3.67984 12.7588C3.7506 12.8102 3.83435 12.8407 3.92158 12.8469C4.00882 12.8531 4.09605 12.8348 4.17339 12.794L7.50005 11.0449L10.8267 12.794C10.9175 12.8423 11.023 12.8584 11.1241 12.8408C11.379 12.7969 11.5503 12.5552 11.5064 12.3003L10.8707 8.59571L13.5616 5.97217C13.6348 5.9004 13.6832 5.80665 13.6978 5.70411C13.7374 5.44776 13.5586 5.21045 13.3023 5.17237Z" fill="#FFCA63"/>
</svg>
