<svg width="198" height="60" viewBox="0 0 198 60" fill="none" xmlns="http://www.w3.org/2000/svg">
<path d="M34.845 17.0849H37.845V37.9649H46.845V40.9649H34.845V17.0849ZM56.19 17.0849C57.97 17.0849 59.71 17.6127 61.1901 18.6017C62.6701 19.5906 63.8238 20.9961 64.5049 22.6407C65.1861 24.2853 65.3643 26.0949 65.017 27.8406C64.6698 29.5865 63.8127 31.1901 62.5539 32.4488C61.2952 33.7076 59.6916 34.5647 57.9457 34.9119C56.2 35.2592 54.3904 35.081 52.7458 34.3998C51.1012 33.7185 49.6957 32.565 48.7068 31.085C47.7178 29.6049 47.19 27.8649 47.19 26.0849C47.19 24.903 47.4228 23.7326 47.875 22.6407C48.3273 21.5487 48.9903 20.5566 49.8261 19.721C50.6617 18.8852 51.6538 18.2222 52.7458 17.7699C53.8377 17.3177 55.0081 17.0849 56.19 17.0849ZM56.19 32.0849C57.3766 32.0849 58.5367 31.733 59.5234 31.0737C60.5101 30.4143 61.2792 29.4773 61.7332 28.3809C62.1874 27.2846 62.3062 26.0783 62.0746 24.9143C61.8432 23.7504 61.2717 22.6814 60.4326 21.8423C59.5935 21.0032 58.5244 20.4317 57.3606 20.2002C56.1966 19.9686 54.9903 20.0874 53.8939 20.5416C52.7976 20.9957 51.8604 21.7647 51.2011 22.7514C50.5419 23.7381 50.19 24.8982 50.19 26.0849C50.1979 27.671 50.8335 29.1894 51.9579 30.3081C53.0823 31.4268 54.6039 32.0549 56.19 32.0549V32.0849ZM50.19 37.9949H62.19V40.9949H50.19V37.9949ZM88.59 40.9949H85.59V38.8499C83.6553 40.2041 81.3516 40.9319 78.99 40.9349C76.9762 40.9484 74.9914 40.4549 73.2186 39.4998C71.4456 38.5446 69.9415 37.1588 68.845 35.4698C67.7484 33.7808 67.0944 31.8429 66.9435 29.8347C66.7924 27.8267 67.1493 25.8128 67.981 23.9789C68.8128 22.1448 70.0927 20.5496 71.7028 19.3403C73.3131 18.1308 75.2017 17.346 77.1948 17.0583C79.188 16.7705 81.2215 16.989 83.1079 17.6936C84.9945 18.3981 86.6734 19.566 87.99 21.0899L85.785 23.0549C84.7836 21.9353 83.518 21.0842 82.1034 20.5791C80.6889 20.0739 79.1704 19.9308 77.6865 20.1629C76.2024 20.3949 74.8002 20.9948 73.6072 21.9075C72.4144 22.8204 71.469 24.0171 70.8573 25.389C70.2454 26.7608 69.9867 28.2638 70.1046 29.7612C70.2225 31.2587 70.7131 32.7027 71.5321 33.9618C72.3511 35.2209 73.4721 36.2552 74.7931 36.9701C76.114 37.685 77.593 38.0579 79.095 38.0549C80.3415 38.0574 81.5739 37.7907 82.7079 37.2729C83.8417 36.7551 84.8505 35.9985 85.665 35.0549H77.565V32.0549H88.62L88.59 40.9949ZM99.63 17.1449C101.41 17.1449 103.15 17.6727 104.63 18.6617C106.11 19.6506 107.264 21.0561 107.945 22.7007C108.626 24.3453 108.804 26.1549 108.457 27.9006C108.11 29.6465 107.253 31.2501 105.994 32.5088C104.735 33.7676 103.132 34.6247 101.386 34.9719C99.64 35.3192 97.8304 35.141 96.1858 34.4598C94.5412 33.7785 93.1357 32.625 92.1468 31.145C91.1578 29.6649 90.63 27.9249 90.63 26.1449C90.622 24.9554 90.85 23.7762 91.3006 22.6754C91.7512 21.5745 92.4156 20.5739 93.2553 19.7315C94.095 18.8889 95.0934 18.2213 96.1927 17.7669C97.2921 17.3127 98.4705 17.0808 99.66 17.0849L99.63 17.1449ZM99.63 32.1449C100.817 32.1449 101.977 31.793 102.963 31.1337C103.95 30.4743 104.719 29.5373 105.173 28.4409C105.627 27.3446 105.746 26.1383 105.515 24.9743C105.283 23.8104 104.712 22.7414 103.873 21.9023C103.033 21.0632 101.964 20.4917 100.801 20.2602C99.6366 20.0286 98.4303 20.1474 97.3339 20.6016C96.2376 21.0557 95.3004 21.8247 94.6411 22.8114C93.9819 23.7981 93.63 24.9582 93.63 26.1449C93.6537 27.7257 94.3003 29.2334 95.4295 30.3401C96.5586 31.4466 98.079 32.063 99.66 32.0549L99.63 32.1449ZM93.63 38.0549H105.63V41.0549H93.63V38.0549ZM111.825 17.0849H114.825V40.9349H111.825V17.0849ZM118.98 17.0849H121.98C122.134 17.0685 122.29 17.0685 122.445 17.0849C123.701 16.9485 124.972 17.0784 126.175 17.4659C127.378 17.8535 128.486 18.4899 129.427 19.334C130.367 20.178 131.119 21.2108 131.634 22.3649C132.15 23.519 132.416 24.7686 132.416 26.0324C132.416 27.2961 132.15 28.5458 131.634 29.6999C131.119 30.854 130.367 31.8867 129.427 32.7308C128.486 33.5748 127.378 34.2113 126.175 34.5989C124.972 34.9863 123.701 35.1162 122.445 34.9799H121.98V40.9799H118.98V17.0849ZM121.98 20.0849V31.9499H122.445C123.292 32.0627 124.154 31.9932 124.972 31.7459C125.791 31.4987 126.547 31.0794 127.19 30.5163C127.833 29.9532 128.348 29.2592 128.701 28.4807C129.054 27.7022 129.237 26.8572 129.237 26.0024C129.237 25.1475 129.054 24.3026 128.701 23.5241C128.348 22.7456 127.833 22.0515 127.19 21.4884C126.547 20.9252 125.791 20.5061 124.972 20.2587C124.154 20.0115 123.292 19.9421 122.445 20.0549C122.282 20.0718 122.121 20.1071 121.965 20.1599L121.98 20.0849ZM143.595 18.8099L141.375 20.5649C140.992 20.1647 140.503 19.8821 139.965 19.7504C139.427 19.6187 138.862 19.6433 138.338 19.8213C137.813 19.9992 137.35 20.3232 137.003 20.7552C136.657 21.1872 136.44 21.7092 136.38 22.2599V22.4999C136.38 23.8199 137.295 24.7049 139.08 24.8249C145.95 25.2449 149.1 28.4699 149.1 32.7299V32.9999C148.923 34.6859 148.265 36.2855 147.204 37.6085C146.144 38.9315 144.726 39.9219 143.119 40.4624C141.513 41.0027 139.784 41.0702 138.14 40.6566C136.496 40.2432 135.005 39.3662 133.845 38.1299L136.14 36.3599C136.674 36.9324 137.326 37.3818 138.052 37.6772C138.777 37.9724 139.558 38.1065 140.34 38.0699C141.785 38.1461 143.203 37.6611 144.299 36.7163C145.394 35.7716 146.083 34.44 146.22 32.9999V32.7899C146.22 28.7849 142.29 28.0499 138.885 27.7199C135.735 27.4199 133.47 25.4549 133.47 22.6199V22.4999C133.581 21.0239 134.255 19.6469 135.352 18.6533C136.449 17.6595 137.885 17.1249 139.365 17.1599C140.149 17.1368 140.929 17.2782 141.655 17.5754C142.381 17.8725 143.037 18.3186 143.58 18.8849L143.595 18.8099ZM160.845 37.8899C164.58 37.8899 167.535 33.8549 167.535 28.8899V16.8899H170.535V28.8899C170.535 35.4899 166.215 40.8149 160.905 40.8149C155.595 40.8149 151.275 35.4899 151.275 28.8899V16.8899H154.275V28.8899C154.155 33.9299 157.11 37.9649 160.83 37.9649L160.845 37.8899ZM193.56 40.8899H190.56V26.0399L183.645 35.0399L176.73 26.0399V40.9349H173.73V17.0849L183.63 30.1199L193.53 17.0849L193.56 40.8899Z" fill="#394149" fill-opacity="0.3"/>
<path d="M20.445 13.5001C20.445 11.3359 19.5854 9.26038 18.055 7.7301C16.5248 6.1998 14.4492 5.34009 12.285 5.34009C10.1208 5.34009 8.04531 6.1998 6.51501 7.7301C4.98471 9.26038 4.125 11.3359 4.125 13.5001V38.1751L10.845 42.9901V54.7201H13.725V42.9901L20.445 38.1751V13.5001ZM17.565 27.3001L13.725 31.1401V27.5401L17.565 23.7001V27.3001ZM7.065 23.7001L10.905 27.5401V31.1401L7.065 27.3001V23.7001ZM17.565 19.6201L12.285 24.9001L7.005 19.5001V15.9001L12.285 21.1801L17.565 15.9001V19.6201ZM12.285 8.22009C13.4462 8.22522 14.5737 8.61088 15.4949 9.31798C16.416 10.0251 17.0799 11.0146 17.385 12.1351L12.285 17.2201L7.185 12.1351C7.47891 11.0035 8.13806 10.0005 9.06019 9.2818C9.98234 8.56308 11.1159 8.16877 12.285 8.16007V8.22009ZM7.005 36.7201V31.3201L10.845 35.1601V39.4501L7.005 36.7201ZM13.725 39.4651V35.1601L17.565 31.3201V36.7051L13.725 39.4651Z" fill="#394149" fill-opacity="0.3"/>
</svg>
