<svg width="150" height="21" viewBox="0 0 150 21" fill="none" xmlns="http://www.w3.org/2000/svg">
<path d="M13.05 16.975C13.2667 16.6917 13.4833 16.3417 13.7 15.925C13.9167 15.4917 14.075 15.1 14.175 14.75C14.225 14.5667 14.2833 14.4583 14.35 14.425C14.4167 14.375 14.5417 14.3583 14.725 14.375C14.925 14.4083 15.0417 14.4667 15.075 14.55C15.125 14.6167 15.15 14.725 15.15 14.875C15.0833 15.475 14.9917 16.0417 14.875 16.575C14.7583 17.1083 14.625 17.6583 14.475 18.225C14.4417 18.3417 14.4 18.425 14.35 18.475C14.3 18.5417 14.225 18.6 14.125 18.65C13.375 18.95 12.6083 19.175 11.825 19.325C11.0583 19.475 10.1167 19.55 9 19.55C7.83333 19.55 6.71667 19.3583 5.65 18.975C4.58333 18.5917 3.65 18.0167 2.85 17.25C2.03333 16.4833 1.38333 15.5417 0.9 14.425C0.416667 13.3083 0.175 12.025 0.175 10.575C0.175 8.825 0.433333 7.34167 0.95 6.125C1.48333 4.89167 2.175 3.89167 3.025 3.125C3.875 2.34167 4.825 1.775 5.875 1.425C6.925 1.075 7.96667 0.9 9 0.9C10.2667 0.9 11.3 0.983333 12.1 1.15C12.9167 1.3 13.7 1.5 14.45 1.75C14.5667 1.8 14.65 1.85833 14.7 1.925C14.7667 1.99167 14.8083 2.075 14.825 2.175C14.875 2.475 14.9083 2.76667 14.925 3.05C14.9583 3.33333 14.9917 3.60833 15.025 3.875C15.0417 4.14167 15.0583 4.41667 15.075 4.7C15.0917 4.96667 15.1167 5.24167 15.15 5.525C15.15 5.675 15.125 5.79167 15.075 5.875C15.0417 5.95833 14.925 6.00833 14.725 6.025C14.5417 6.05833 14.4167 6.05833 14.35 6.025C14.2833 5.975 14.225 5.85 14.175 5.65C14.075 5.3 13.9167 4.89167 13.7 4.425C13.4833 3.95833 13.25 3.6 13 3.35C12.5167 2.9 11.9333 2.60833 11.25 2.475C10.5833 2.325 9.85 2.25 9.05 2.25C8.4 2.25 7.725 2.425 7.025 2.775C6.34167 3.125 5.71667 3.63333 5.15 4.3C4.58333 4.98333 4.11667 5.81667 3.75 6.8C3.38333 7.76667 3.2 8.88333 3.2 10.15C3.2 11.3667 3.33333 12.4667 3.6 13.45C3.88333 14.4333 4.275 15.275 4.775 15.975C5.29167 16.675 5.91667 17.2167 6.65 17.6C7.38333 17.9667 8.21667 18.15 9.15 18.15C10.05 18.15 10.85 18.0417 11.55 17.825C12.2667 17.6083 12.7667 17.325 13.05 16.975ZM26.4684 19.45C25.2517 19.45 24.11 19.2417 23.0434 18.825C21.9767 18.425 21.0517 17.825 20.2684 17.025C19.4684 16.225 18.8434 15.25 18.3934 14.1C17.9434 12.9333 17.7184 11.6 17.7184 10.1C17.7184 8.63333 17.9434 7.325 18.3934 6.175C18.8434 5.025 19.46 4.05833 20.2434 3.275C21.0267 2.475 21.9517 1.86667 23.0184 1.45C24.1017 1.03333 25.26 0.824999 26.4934 0.824999C27.7434 0.824999 28.9017 1.025 29.9684 1.425C31.0517 1.80833 31.985 2.38333 32.7684 3.15C33.5517 3.91667 34.1684 4.88333 34.6184 6.05C35.085 7.2 35.3184 8.55 35.3184 10.1C35.3184 11.6 35.085 12.9333 34.6184 14.1C34.1517 15.25 33.5184 16.225 32.7184 17.025C31.9184 17.825 30.9767 18.425 29.8934 18.825C28.8267 19.2417 27.685 19.45 26.4684 19.45ZM26.4934 2.3C25.5267 2.3 24.6684 2.5 23.9184 2.9C23.185 3.3 22.5684 3.85 22.0684 4.55C21.5684 5.25 21.1934 6.075 20.9434 7.025C20.6934 7.95833 20.5684 8.96667 20.5684 10.05C20.5517 11.1667 20.685 12.2083 20.9684 13.175C21.2684 14.125 21.685 14.9583 22.2184 15.675C22.735 16.3917 23.3517 16.95 24.0684 17.35C24.8017 17.75 25.61 17.95 26.4934 17.95C27.36 17.95 28.16 17.75 28.8934 17.35C29.6267 16.95 30.26 16.3917 30.7934 15.675C31.3267 14.9583 31.735 14.125 32.0184 13.175C32.3184 12.2083 32.4684 11.1667 32.4684 10.05C32.4684 8.96667 32.3184 7.95833 32.0184 7.025C31.7184 6.075 31.3017 5.25 30.7684 4.55C30.235 3.85 29.6017 3.3 28.8684 2.9C28.1517 2.5 27.36 2.3 26.4934 2.3ZM43.0314 17.2C43.0314 17.5333 43.0731 17.775 43.1564 17.925C43.2398 18.075 43.3481 18.175 43.4814 18.225C43.6481 18.2917 43.8481 18.35 44.0814 18.4C44.3148 18.45 44.5314 18.475 44.7314 18.475C44.9314 18.4917 45.0731 18.525 45.1564 18.575C45.2564 18.6417 45.3064 18.7833 45.3064 19C45.3064 19.1333 45.2898 19.225 45.2564 19.275C45.2231 19.3417 45.1814 19.3833 45.1314 19.4C45.0814 19.4333 45.0148 19.4417 44.9314 19.425C44.8481 19.425 44.7564 19.425 44.6564 19.425C44.5898 19.425 44.4231 19.425 44.1564 19.425C43.9064 19.425 43.6314 19.4167 43.3314 19.4C43.0148 19.4 42.7064 19.3917 42.4064 19.375C42.1064 19.375 41.8814 19.375 41.7314 19.375C41.5814 19.375 41.3481 19.375 41.0314 19.375C40.7314 19.3917 40.4314 19.4 40.1314 19.4C39.8148 19.4167 39.5314 19.425 39.2814 19.425C39.0314 19.425 38.8898 19.425 38.8564 19.425C38.7398 19.425 38.6398 19.425 38.5564 19.425C38.4731 19.4417 38.4064 19.4333 38.3564 19.4C38.3064 19.3833 38.2648 19.3417 38.2314 19.275C38.2148 19.225 38.2064 19.1333 38.2064 19C38.2064 18.7833 38.2481 18.6417 38.3314 18.575C38.4314 18.525 38.5814 18.4917 38.7814 18.475C38.9814 18.475 39.1898 18.45 39.4064 18.4C39.6398 18.35 39.8481 18.2917 40.0314 18.225C40.1481 18.175 40.2481 18.075 40.3314 17.925C40.4314 17.7583 40.4814 17.4917 40.4814 17.125V3.325C40.4814 3.04167 40.4398 2.80833 40.3564 2.625C40.2898 2.44167 40.1731 2.31667 40.0064 2.25C39.7898 2.18333 39.5564 2.13333 39.3064 2.1C39.0564 2.05 38.8064 2.00833 38.5564 1.975C38.3398 1.975 38.1814 1.95 38.0814 1.9C37.9981 1.85 37.9564 1.7 37.9564 1.45C37.9564 1.33333 37.9731 1.25 38.0064 1.2C38.0398 1.13333 38.0814 1.09167 38.1314 1.075C38.1981 1.04167 38.2731 1.025 38.3564 1.025C38.4398 1.025 38.5314 1.025 38.6314 1.025C38.6981 1.025 38.9648 1.03333 39.4314 1.05C39.9148 1.05 40.4564 1.05833 41.0564 1.075C41.6564 1.09167 42.2481 1.1 42.8314 1.1C43.4314 1.1 43.9064 1.1 44.2564 1.1C44.5731 1.1 45.0064 1.1 45.5564 1.1C46.1231 1.1 46.6814 1.09167 47.2314 1.075C47.7814 1.05833 48.2564 1.05 48.6564 1.05C49.0731 1.03333 49.2981 1.025 49.3314 1.025C49.4481 1.025 49.5398 1.04167 49.6064 1.075C49.6898 1.09167 49.7481 1.175 49.7814 1.325C49.8814 1.94167 49.9814 2.54167 50.0814 3.125C50.1814 3.69167 50.2814 4.26667 50.3814 4.85C50.3981 5 50.3898 5.125 50.3564 5.225C50.3231 5.30833 50.2314 5.36667 50.0814 5.4C49.9148 5.45 49.7731 5.46667 49.6564 5.45C49.5564 5.41667 49.4814 5.3 49.4314 5.1C49.3314 4.83333 49.2148 4.55 49.0814 4.25C48.9648 3.95 48.8314 3.66667 48.6814 3.4C48.5314 3.11667 48.3231 2.89167 48.0564 2.725C47.8064 2.55833 47.4731 2.475 47.0564 2.475H44.6314C44.4314 2.475 44.2231 2.48333 44.0064 2.5C43.8064 2.5 43.6148 2.525 43.4314 2.575C43.2814 2.625 43.1731 2.74167 43.1064 2.925C43.0564 3.09167 43.0314 3.33333 43.0314 3.65V8.675C43.0314 8.79167 43.0481 8.86667 43.0814 8.9C43.1314 8.93333 43.2148 8.95 43.3314 8.95H46.4314C46.9314 8.95 47.2398 8.90833 47.3564 8.825C47.4898 8.725 47.6064 8.56667 47.7064 8.35C47.7564 8.2 47.8148 8 47.8814 7.75C47.9481 7.5 48.0231 7.175 48.1064 6.775C48.1231 6.625 48.1648 6.53333 48.2314 6.5C48.3148 6.45 48.4481 6.43333 48.6314 6.45C48.8148 6.48333 48.9231 6.53333 48.9564 6.6C49.0064 6.66667 49.0314 6.775 49.0314 6.925C48.9814 7.425 48.9481 7.95 48.9314 8.5C48.9148 9.03333 48.9064 9.45 48.9064 9.75C48.9064 9.98333 48.9148 10.4083 48.9314 11.025C48.9481 11.625 48.9814 12.175 49.0314 12.675C49.0314 12.825 49.0064 12.9417 48.9564 13.025C48.9231 13.0917 48.8148 13.1333 48.6314 13.15C48.4481 13.1833 48.3148 13.175 48.2314 13.125C48.1648 13.0583 48.1231 12.9417 48.1064 12.775C48.0398 12.425 47.9648 12.0917 47.8814 11.775C47.8148 11.4417 47.7314 11.15 47.6314 10.9C47.5648 10.7 47.4648 10.5583 47.3314 10.475C47.1981 10.375 46.8814 10.325 46.3814 10.325H43.3314C43.2148 10.325 43.1314 10.3417 43.0814 10.375C43.0481 10.4083 43.0314 10.475 43.0314 10.575V17.2ZM56.9742 3.175V12.625C56.9742 14.4583 57.3076 15.8 57.9742 16.65C58.6409 17.4833 59.7409 17.9 61.2742 17.9C62.6242 17.9 63.6742 17.475 64.4242 16.625C65.1742 15.7583 65.5492 14.4833 65.5492 12.8V7.55C65.5492 6.85 65.5326 6.11667 65.4992 5.35C65.4826 4.56667 65.4409 3.875 65.3742 3.275C65.3242 2.925 65.2659 2.66667 65.1992 2.5C65.1326 2.33333 65.0409 2.225 64.9242 2.175C64.7409 2.125 64.5326 2.075 64.2992 2.025C64.0826 1.975 63.8742 1.94167 63.6742 1.925C63.4742 1.925 63.3242 1.9 63.2242 1.85C63.1409 1.78333 63.0992 1.63333 63.0992 1.4C63.0992 1.28333 63.1076 1.2 63.1242 1.15C63.1576 1.08333 63.1992 1.04167 63.2492 1.025C63.2992 0.991666 63.3659 0.974999 63.4492 0.974999C63.5326 0.974999 63.6326 0.974999 63.7492 0.974999C63.7826 0.974999 63.9076 0.983332 64.1242 1C64.3576 1 64.6076 1 64.8742 1C65.1576 1.01667 65.4326 1.025 65.6992 1.025C65.9826 1.025 66.1992 1.025 66.3492 1.025C66.4992 1.025 66.7076 1.025 66.9742 1.025C67.2409 1.025 67.5159 1.01667 67.7992 1C68.0659 1 68.3076 1 68.5242 1C68.7576 0.983332 68.8992 0.974999 68.9492 0.974999C69.0492 0.974999 69.1409 0.974999 69.2242 0.974999C69.3076 0.974999 69.3742 0.991666 69.4242 1.025C69.4742 1.04167 69.5159 1.08333 69.5492 1.15C69.5826 1.2 69.5992 1.28333 69.5992 1.4C69.5992 1.63333 69.5492 1.78333 69.4492 1.85C69.3659 1.9 69.2242 1.925 69.0242 1.925C68.8242 1.94167 68.6076 1.975 68.3742 2.025C68.1576 2.075 67.9659 2.125 67.7992 2.175C67.6659 2.225 67.5659 2.33333 67.4992 2.5C67.4492 2.66667 67.3992 2.925 67.3492 3.275C67.2659 3.84167 67.2076 4.51667 67.1742 5.3C67.1576 6.08333 67.1492 6.825 67.1492 7.525V13.125C67.1492 14.0583 67.0326 14.925 66.7992 15.725C66.5659 16.5083 66.1992 17.1833 65.6992 17.75C65.1992 18.3167 64.5576 18.7583 63.7742 19.075C63.0076 19.3917 62.0909 19.55 61.0242 19.55C58.9076 19.55 57.2576 19.0667 56.0742 18.1C54.8909 17.1333 54.2992 15.45 54.2992 13.05V3.25C54.2992 2.9 54.2492 2.64167 54.1492 2.475C54.0659 2.30833 53.9659 2.2 53.8492 2.15C53.6659 2.1 53.4576 2.05 53.2242 2C53.0076 1.95 52.7992 1.91667 52.5992 1.9C52.3992 1.9 52.2492 1.875 52.1492 1.825C52.0659 1.75833 52.0242 1.60833 52.0242 1.375C52.0242 1.25833 52.0326 1.175 52.0492 1.125C52.0826 1.05833 52.1242 1.01667 52.1742 1C52.2242 0.966666 52.2909 0.949999 52.3742 0.949999C52.4576 0.949999 52.5576 0.949999 52.6742 0.949999C52.7076 0.949999 52.8492 0.958332 53.0992 0.974999C53.3492 0.974999 53.6326 0.974999 53.9492 0.974999C54.2659 0.991666 54.5742 1 54.8742 1C55.1909 1 55.4242 1 55.5742 1C55.7242 1 55.9409 1 56.2242 1C56.5242 1 56.8242 0.991666 57.1242 0.974999C57.4242 0.974999 57.6992 0.974999 57.9492 0.974999C58.1992 0.958332 58.3576 0.949999 58.4242 0.949999C58.5242 0.949999 58.6159 0.949999 58.6992 0.949999C58.7826 0.949999 58.8492 0.966666 58.8992 1C58.9492 1.01667 58.9909 1.05833 59.0242 1.125C59.0576 1.175 59.0742 1.25833 59.0742 1.375C59.0742 1.60833 59.0242 1.75833 58.9242 1.825C58.8409 1.875 58.6992 1.9 58.4992 1.9C58.2992 1.91667 58.1076 1.95 57.9242 2C57.7576 2.05 57.5909 2.1 57.4242 2.15C57.2909 2.2 57.1826 2.30833 57.0992 2.475C57.0159 2.625 56.9742 2.85833 56.9742 3.175ZM76.2301 9.1C76.2301 9.23333 76.2467 9.31667 76.2801 9.35C76.3134 9.38333 76.3801 9.4 76.4801 9.4C78.1801 9.4 79.4884 9.14167 80.4051 8.625C81.3384 8.10833 81.8051 7.15833 81.8051 5.775C81.8051 5.34167 81.7384 4.91667 81.6051 4.5C81.4884 4.06667 81.2801 3.68333 80.9801 3.35C80.6801 3.03333 80.2717 2.775 79.7551 2.575C79.2551 2.35833 78.6301 2.25 77.8801 2.25C77.7134 2.25 77.4967 2.25833 77.2301 2.275C76.9634 2.29167 76.7551 2.325 76.6051 2.375C76.4551 2.425 76.3551 2.53333 76.3051 2.7C76.2551 2.86667 76.2301 3.11667 76.2301 3.45V9.1ZM76.2301 11.025V17.2C76.2301 17.5333 76.2717 17.775 76.3551 17.925C76.4384 18.075 76.5467 18.175 76.6801 18.225C76.8467 18.2917 77.0301 18.35 77.2301 18.4C77.4301 18.45 77.6301 18.475 77.8301 18.475C78.0301 18.4917 78.1717 18.525 78.2551 18.575C78.3551 18.6417 78.4051 18.7833 78.4051 19C78.4051 19.1333 78.3884 19.225 78.3551 19.275C78.3217 19.3417 78.2801 19.3833 78.2301 19.4C78.1801 19.4333 78.1134 19.4417 78.0301 19.425C77.9467 19.425 77.8551 19.425 77.7551 19.425C77.6884 19.425 77.5301 19.425 77.2801 19.425C77.0301 19.425 76.7551 19.4167 76.4551 19.4C76.1551 19.4 75.8551 19.3917 75.5551 19.375C75.2717 19.375 75.0551 19.375 74.9051 19.375C74.7551 19.375 74.5217 19.375 74.2051 19.375C73.9051 19.3917 73.5967 19.4 73.2801 19.4C72.9634 19.4167 72.6801 19.425 72.4301 19.425C72.1801 19.425 72.0384 19.425 72.0051 19.425C71.8884 19.425 71.7884 19.425 71.7051 19.425C71.6217 19.4417 71.5551 19.4333 71.5051 19.4C71.4551 19.3833 71.4134 19.3417 71.3801 19.275C71.3634 19.225 71.3551 19.1333 71.3551 19C71.3551 18.7833 71.3967 18.6417 71.4801 18.575C71.5801 18.525 71.7301 18.4917 71.9301 18.475C72.1301 18.475 72.3384 18.45 72.5551 18.4C72.7884 18.35 72.9967 18.2917 73.1801 18.225C73.2967 18.175 73.3967 18.075 73.4801 17.925C73.5801 17.7583 73.6301 17.4917 73.6301 17.125V3.3C73.6301 3.01667 73.5884 2.78333 73.5051 2.6C73.4384 2.41667 73.3384 2.3 73.2051 2.25C73.0384 2.2 72.8467 2.16667 72.6301 2.15C72.4301 2.11667 72.2301 2.1 72.0301 2.1C71.8301 2.1 71.6717 2.08333 71.5551 2.05C71.4551 2 71.4051 1.85 71.4051 1.6C71.4051 1.5 71.4134 1.425 71.4301 1.375C71.4634 1.325 71.5051 1.28333 71.5551 1.25C71.6051 1.21667 71.6634 1.19167 71.7301 1.175C71.7967 1.15833 71.8717 1.14167 71.9551 1.125C72.9551 1.075 73.9134 1.03333 74.8301 1C75.7634 0.966666 76.7467 0.949999 77.7801 0.949999C79.9634 0.949999 81.6217 1.35833 82.7551 2.175C83.8884 2.99167 84.4551 4.175 84.4551 5.725C84.4551 6.24167 84.3301 6.75833 84.0801 7.275C83.8467 7.775 83.5217 8.225 83.1051 8.625C82.6717 9.04167 82.1551 9.375 81.5551 9.625C80.9717 9.875 80.3217 10 79.6051 10C79.5051 10.0167 79.4551 10.05 79.4551 10.1C79.4551 10.1333 79.4884 10.1583 79.5551 10.175C80.0551 10.275 80.4634 10.4833 80.7801 10.8C81.1134 11.1 81.4051 11.5 81.6551 12L83.6051 16.05C84.0384 16.9167 84.4967 17.5417 84.9801 17.925C85.4801 18.2917 85.9801 18.45 86.4801 18.4C86.7801 18.3833 86.9884 18.3833 87.1051 18.4C87.2217 18.4333 87.3051 18.55 87.3551 18.75C87.3884 18.9 87.3634 19.025 87.2801 19.125C87.2134 19.2417 87.0551 19.325 86.8051 19.375C86.7051 19.3917 86.6051 19.4083 86.5051 19.425C86.4217 19.4417 86.3301 19.45 86.2301 19.45C86.1467 19.4667 86.0551 19.475 85.9551 19.475C85.8551 19.475 85.7551 19.475 85.6551 19.475C84.5551 19.475 83.5884 19.2083 82.7551 18.675C81.9384 18.1583 81.2634 17.3167 80.7301 16.15L79.0551 12.45C78.7051 11.7167 78.3634 11.2417 78.0301 11.025C77.6967 10.8083 77.1801 10.7 76.4801 10.7C76.3801 10.7 76.3134 10.725 76.2801 10.775C76.2467 10.8083 76.2301 10.8917 76.2301 11.025ZM102.752 7.55C102.752 6.85 102.735 6.11667 102.702 5.35C102.685 4.56667 102.644 3.875 102.577 3.275C102.527 2.925 102.469 2.66667 102.402 2.5C102.335 2.33333 102.244 2.225 102.127 2.175C101.944 2.125 101.735 2.075 101.502 2.025C101.285 1.975 101.077 1.94167 100.877 1.925C100.677 1.925 100.527 1.9 100.427 1.85C100.344 1.78333 100.302 1.63333 100.302 1.4C100.302 1.28333 100.31 1.2 100.327 1.15C100.36 1.08333 100.402 1.04167 100.452 1.025C100.502 0.991666 100.569 0.974999 100.652 0.974999C100.735 0.974999 100.835 0.974999 100.952 0.974999C100.985 0.974999 101.11 0.983332 101.327 1C101.56 1 101.81 1 102.077 1C102.36 1.01667 102.635 1.025 102.902 1.025C103.185 1.025 103.402 1.025 103.552 1.025C103.702 1.025 103.91 1.025 104.177 1.025C104.444 1.025 104.719 1.01667 105.002 1C105.269 1 105.51 1 105.727 1C105.96 0.983332 106.102 0.974999 106.152 0.974999C106.252 0.974999 106.344 0.974999 106.427 0.974999C106.51 0.974999 106.577 0.991666 106.627 1.025C106.677 1.04167 106.719 1.08333 106.752 1.15C106.785 1.2 106.802 1.28333 106.802 1.4C106.802 1.63333 106.752 1.78333 106.652 1.85C106.569 1.9 106.427 1.925 106.227 1.925C106.027 1.94167 105.81 1.975 105.577 2.025C105.36 2.075 105.169 2.125 105.002 2.175C104.869 2.225 104.769 2.33333 104.702 2.5C104.652 2.66667 104.602 2.925 104.552 3.275C104.469 3.84167 104.41 4.51667 104.377 5.3C104.36 6.08333 104.352 6.825 104.352 7.525V19.35C104.352 19.7667 104.26 20.0083 104.077 20.075C103.91 20.1417 103.71 20.0083 103.477 19.675L92.702 4.825V12.875C92.702 13.575 92.7103 14.325 92.727 15.125C92.7603 15.9083 92.8186 16.575 92.902 17.125C92.952 17.4917 93.002 17.7583 93.052 17.925C93.1186 18.075 93.2186 18.175 93.352 18.225C93.5186 18.2917 93.7103 18.35 93.927 18.4C94.1603 18.45 94.377 18.475 94.577 18.475C94.777 18.4917 94.9186 18.525 95.002 18.575C95.102 18.6417 95.152 18.7833 95.152 19C95.152 19.1333 95.1353 19.225 95.102 19.275C95.0686 19.3417 95.027 19.3833 94.977 19.4C94.927 19.4333 94.8603 19.4417 94.777 19.425C94.6936 19.425 94.602 19.425 94.502 19.425C94.452 19.425 94.3103 19.425 94.077 19.425C93.8603 19.425 93.6186 19.4167 93.352 19.4C93.0686 19.4 92.7936 19.3917 92.527 19.375C92.2603 19.375 92.052 19.375 91.902 19.375C91.752 19.375 91.5353 19.375 91.252 19.375C90.9853 19.3917 90.7103 19.4 90.427 19.4C90.1603 19.4167 89.9103 19.425 89.677 19.425C89.4603 19.425 89.3353 19.425 89.302 19.425C89.1853 19.425 89.0853 19.425 89.002 19.425C88.9186 19.4417 88.852 19.4333 88.802 19.4C88.752 19.3833 88.7103 19.3417 88.677 19.275C88.6603 19.225 88.652 19.1333 88.652 19C88.652 18.7833 88.6936 18.6417 88.777 18.575C88.877 18.525 89.027 18.4917 89.227 18.475C89.427 18.475 89.6353 18.45 89.852 18.4C90.0853 18.35 90.2936 18.2917 90.477 18.225C90.5936 18.175 90.6853 18.075 90.752 17.925C90.8186 17.7583 90.877 17.4917 90.927 17.125C90.9936 16.5417 91.0353 15.8667 91.052 15.1C91.0853 14.3167 91.102 13.5667 91.102 12.85V3.25C91.102 2.9 91.0603 2.65 90.977 2.5C90.9103 2.33333 90.802 2.21667 90.652 2.15C90.4686 2.1 90.277 2.05833 90.077 2.025C89.8936 1.975 89.702 1.93333 89.502 1.9C89.302 1.88333 89.152 1.85 89.052 1.8C88.9686 1.75 88.927 1.60833 88.927 1.375C88.927 1.25833 88.9353 1.175 88.952 1.125C88.9853 1.05833 89.027 1.01667 89.077 1C89.127 0.966666 89.1936 0.949999 89.277 0.949999C89.3603 0.949999 89.4603 0.949999 89.577 0.949999C89.6103 0.949999 89.7436 0.958332 89.977 0.974999C90.227 0.974999 90.502 0.974999 90.802 0.974999C91.102 0.991666 91.3936 1 91.677 1C91.977 1 92.2103 1 92.377 1H93.427C93.477 1 93.5186 1.00833 93.552 1.025C93.602 1.04167 93.6436 1.05833 93.677 1.075C93.6936 1.10833 93.7103 1.14167 93.727 1.175C93.7603 1.20833 93.7936 1.24167 93.827 1.275L102.752 13.6V7.55ZM112.26 19.375C112.11 19.375 111.877 19.375 111.56 19.375C111.26 19.3917 110.952 19.4 110.635 19.4C110.318 19.4167 110.035 19.425 109.785 19.425C109.535 19.425 109.393 19.425 109.36 19.425C109.243 19.425 109.143 19.425 109.06 19.425C108.977 19.4417 108.91 19.4333 108.86 19.4C108.81 19.3833 108.768 19.3417 108.735 19.275C108.718 19.225 108.71 19.1333 108.71 19C108.71 18.7833 108.752 18.6417 108.835 18.575C108.935 18.525 109.085 18.4917 109.285 18.475C109.485 18.475 109.693 18.45 109.91 18.4C110.143 18.35 110.352 18.2917 110.535 18.225C110.652 18.175 110.752 18.075 110.835 17.925C110.935 17.7583 110.985 17.4917 110.985 17.125V3.25C110.985 2.9 110.935 2.64167 110.835 2.475C110.752 2.30833 110.652 2.2 110.535 2.15C110.352 2.1 110.143 2.05 109.91 2C109.693 1.95 109.485 1.91667 109.285 1.9C109.085 1.9 108.935 1.875 108.835 1.825C108.752 1.75833 108.71 1.60833 108.71 1.375C108.71 1.25833 108.718 1.175 108.735 1.125C108.768 1.05833 108.81 1.01667 108.86 1C108.91 0.966666 108.977 0.949999 109.06 0.949999C109.143 0.949999 109.243 0.949999 109.36 0.949999C109.393 0.949999 109.535 0.958332 109.785 0.974999C110.035 0.974999 110.318 0.974999 110.635 0.974999C110.952 0.991666 111.26 1 111.56 1C111.86 1 112.093 1 112.26 1C112.41 1 112.635 1 112.935 1C113.235 1 113.543 0.991666 113.86 0.974999C114.177 0.974999 114.46 0.974999 114.71 0.974999C114.977 0.958332 115.135 0.949999 115.185 0.949999C115.285 0.949999 115.377 0.949999 115.46 0.949999C115.543 0.949999 115.61 0.966666 115.66 1C115.71 1.01667 115.752 1.05833 115.785 1.125C115.818 1.175 115.835 1.25833 115.835 1.375C115.835 1.60833 115.785 1.75833 115.685 1.825C115.602 1.875 115.46 1.9 115.26 1.9C115.06 1.91667 114.843 1.95 114.61 2C114.377 2.05 114.177 2.1 114.01 2.15C113.877 2.2 113.768 2.30833 113.685 2.475C113.602 2.64167 113.56 2.9 113.56 3.25V17.125C113.56 17.4917 113.602 17.7583 113.685 17.925C113.768 18.075 113.877 18.175 114.01 18.225C114.177 18.2917 114.377 18.35 114.61 18.4C114.843 18.45 115.06 18.475 115.26 18.475C115.46 18.4917 115.602 18.525 115.685 18.575C115.785 18.6417 115.835 18.7833 115.835 19C115.835 19.1333 115.818 19.225 115.785 19.275C115.752 19.3417 115.71 19.3833 115.66 19.4C115.61 19.4333 115.543 19.4417 115.46 19.425C115.377 19.425 115.285 19.425 115.185 19.425C115.135 19.425 114.977 19.425 114.71 19.425C114.46 19.425 114.177 19.4167 113.86 19.4C113.543 19.4 113.235 19.3917 112.935 19.375C112.635 19.375 112.41 19.375 112.26 19.375ZM124.049 18C124.399 18 124.757 17.9417 125.124 17.825C125.491 17.6917 125.824 17.5 126.124 17.25C126.424 17 126.674 16.7083 126.874 16.375C127.074 16.025 127.182 15.6333 127.199 15.2C127.199 14.6667 127.082 14.1917 126.849 13.775C126.616 13.3417 126.307 12.95 125.924 12.6C125.557 12.2667 125.141 11.9667 124.674 11.7C124.207 11.4333 123.749 11.1833 123.299 10.95V10.975C122.616 10.6583 122.007 10.35 121.474 10.05C120.941 9.75 120.491 9.41667 120.124 9.05C119.757 8.68333 119.474 8.26667 119.274 7.8C119.091 7.31667 118.999 6.73333 118.999 6.05C118.999 4.55 119.491 3.31667 120.474 2.35C121.457 1.38333 122.882 0.9 124.749 0.9C125.449 0.949999 126.074 1.03333 126.624 1.15C127.174 1.26667 127.732 1.44167 128.299 1.675C128.416 1.725 128.499 1.78333 128.549 1.85C128.616 1.91667 128.657 2 128.674 2.1C128.724 2.4 128.757 2.69167 128.774 2.975C128.807 3.24167 128.841 3.5 128.874 3.75C128.891 4.01667 128.907 4.28333 128.924 4.55C128.941 4.81667 128.966 5.09167 128.999 5.375C128.999 5.525 128.974 5.64167 128.924 5.725C128.891 5.80833 128.774 5.85833 128.574 5.875C128.391 5.90833 128.266 5.90833 128.199 5.875C128.132 5.825 128.074 5.7 128.024 5.5C127.924 5.15 127.766 4.74167 127.549 4.275C127.332 3.80833 127.099 3.45 126.849 3.2C126.549 2.9 126.191 2.68333 125.774 2.55C125.374 2.4 124.924 2.325 124.424 2.325C123.374 2.325 122.599 2.575 122.099 3.075C121.616 3.55833 121.374 4.1 121.374 4.7C121.374 5.21667 121.466 5.65833 121.649 6.025C121.849 6.39167 122.124 6.71667 122.474 7C122.824 7.3 123.232 7.56667 123.699 7.8C124.166 8.03333 124.674 8.275 125.224 8.525C125.741 8.79167 126.257 9.075 126.774 9.375C127.307 9.675 127.782 10.025 128.199 10.425C128.616 10.825 128.957 11.2833 129.224 11.8C129.491 12.3167 129.624 12.925 129.624 13.625C129.624 15.425 129.082 16.8667 127.999 17.95C126.932 19.0167 125.482 19.55 123.649 19.55C122.616 19.55 121.716 19.425 120.949 19.175C120.199 18.925 119.516 18.575 118.899 18.125C118.799 18.075 118.724 18.0167 118.674 17.95C118.624 17.8667 118.599 17.7667 118.599 17.65C118.499 17.0667 118.424 16.5083 118.374 15.975C118.324 15.425 118.299 14.85 118.299 14.25C118.299 14.1 118.324 13.9917 118.374 13.925C118.424 13.8417 118.557 13.8 118.774 13.8C118.957 13.8 119.074 13.825 119.124 13.875C119.191 13.925 119.249 14.05 119.299 14.25C119.349 14.6167 119.449 15.025 119.599 15.475C119.766 15.9083 119.957 16.275 120.174 16.575C120.441 16.975 120.916 17.3167 121.599 17.6C122.282 17.8667 123.099 18 124.049 18ZM133.88 3.25C133.88 2.9 133.83 2.64167 133.73 2.475C133.646 2.30833 133.546 2.2 133.43 2.15C133.246 2.1 133.038 2.05 132.805 2C132.588 1.95 132.38 1.91667 132.18 1.9C131.98 1.9 131.83 1.875 131.73 1.825C131.646 1.75833 131.605 1.60833 131.605 1.375C131.605 1.25833 131.613 1.175 131.63 1.125C131.663 1.05833 131.705 1.01667 131.755 1C131.805 0.966666 131.871 0.949999 131.955 0.949999C132.038 0.949999 132.138 0.949999 132.255 0.949999C132.288 0.949999 132.43 0.958332 132.68 0.974999C132.93 0.974999 133.213 0.974999 133.53 0.974999C133.846 0.991666 134.155 1 134.455 1C134.771 1 135.005 1 135.155 1C135.305 1 135.521 1 135.805 1C136.105 1 136.405 0.991666 136.705 0.974999C137.005 0.974999 137.28 0.974999 137.53 0.974999C137.78 0.958332 137.938 0.949999 138.005 0.949999C138.105 0.949999 138.196 0.949999 138.28 0.949999C138.363 0.949999 138.43 0.966666 138.48 1C138.53 1.01667 138.571 1.05833 138.605 1.125C138.638 1.175 138.655 1.25833 138.655 1.375C138.655 1.60833 138.605 1.75833 138.505 1.825C138.421 1.875 138.28 1.9 138.08 1.9C137.88 1.91667 137.68 1.95 137.48 2C137.28 2.05 137.096 2.1 136.93 2.15C136.796 2.2 136.688 2.30833 136.605 2.475C136.521 2.625 136.48 2.85833 136.48 3.175V8.475C136.48 8.60833 136.496 8.69167 136.53 8.725C136.563 8.75833 136.63 8.775 136.73 8.775H144.48C144.58 8.775 144.646 8.75833 144.68 8.725C144.713 8.69167 144.73 8.60833 144.73 8.475V3.175C144.73 2.85833 144.68 2.625 144.58 2.475C144.496 2.30833 144.396 2.2 144.28 2.15C144.096 2.1 143.905 2.05 143.705 2C143.521 1.95 143.33 1.91667 143.13 1.9C142.93 1.9 142.78 1.875 142.68 1.825C142.596 1.75833 142.555 1.60833 142.555 1.375C142.555 1.25833 142.563 1.175 142.58 1.125C142.613 1.05833 142.655 1.01667 142.705 1C142.755 0.966666 142.821 0.949999 142.905 0.949999C142.988 0.949999 143.088 0.949999 143.205 0.949999C143.255 0.949999 143.396 0.958332 143.63 0.974999C143.88 0.974999 144.155 0.974999 144.455 0.974999C144.755 0.991666 145.055 1 145.355 1C145.655 1 145.88 1 146.03 1C146.18 1 146.405 1 146.705 1C147.005 1 147.305 0.991666 147.605 0.974999C147.921 0.974999 148.205 0.974999 148.455 0.974999C148.705 0.958332 148.855 0.949999 148.905 0.949999C149.005 0.949999 149.096 0.949999 149.18 0.949999C149.263 0.949999 149.33 0.966666 149.38 1C149.43 1.01667 149.471 1.05833 149.505 1.125C149.538 1.175 149.555 1.25833 149.555 1.375C149.555 1.60833 149.505 1.75833 149.405 1.825C149.321 1.875 149.18 1.9 148.98 1.9C148.78 1.91667 148.563 1.95 148.33 2C148.096 2.05 147.896 2.1 147.73 2.15C147.596 2.2 147.488 2.30833 147.405 2.475C147.321 2.64167 147.28 2.9 147.28 3.25V17.125C147.28 17.4917 147.321 17.7583 147.405 17.925C147.488 18.075 147.596 18.175 147.73 18.225C147.896 18.2917 148.096 18.35 148.33 18.4C148.563 18.45 148.78 18.475 148.98 18.475C149.18 18.4917 149.321 18.525 149.405 18.575C149.505 18.6417 149.555 18.7833 149.555 19C149.555 19.1333 149.538 19.225 149.505 19.275C149.471 19.3417 149.43 19.3833 149.38 19.4C149.33 19.4333 149.263 19.4417 149.18 19.425C149.096 19.425 149.005 19.425 148.905 19.425C148.855 19.425 148.705 19.425 148.455 19.425C148.205 19.425 147.921 19.4167 147.605 19.4C147.305 19.4 147.005 19.3917 146.705 19.375C146.405 19.375 146.18 19.375 146.03 19.375C145.88 19.375 145.655 19.375 145.355 19.375C145.055 19.3917 144.755 19.4 144.455 19.4C144.155 19.4167 143.88 19.425 143.63 19.425C143.396 19.425 143.255 19.425 143.205 19.425C143.088 19.425 142.988 19.425 142.905 19.425C142.821 19.4417 142.755 19.4333 142.705 19.4C142.655 19.3833 142.613 19.3417 142.58 19.275C142.563 19.225 142.555 19.1333 142.555 19C142.555 18.7833 142.596 18.6417 142.68 18.575C142.78 18.525 142.93 18.4917 143.13 18.475C143.33 18.475 143.521 18.45 143.705 18.4C143.905 18.35 144.096 18.2917 144.28 18.225C144.396 18.175 144.496 18.075 144.58 17.925C144.68 17.775 144.73 17.5333 144.73 17.2V10.575C144.73 10.4417 144.713 10.3583 144.68 10.325C144.646 10.275 144.58 10.25 144.48 10.25H136.73C136.63 10.25 136.563 10.275 136.53 10.325C136.496 10.3583 136.48 10.4417 136.48 10.575V17.2C136.48 17.5333 136.521 17.775 136.605 17.925C136.688 18.075 136.796 18.175 136.93 18.225C137.096 18.2917 137.28 18.35 137.48 18.4C137.68 18.45 137.88 18.475 138.08 18.475C138.28 18.4917 138.421 18.525 138.505 18.575C138.605 18.6417 138.655 18.7833 138.655 19C138.655 19.1333 138.638 19.225 138.605 19.275C138.571 19.3417 138.53 19.3833 138.48 19.4C138.43 19.4333 138.363 19.4417 138.28 19.425C138.196 19.425 138.105 19.425 138.005 19.425C137.938 19.425 137.78 19.425 137.53 19.425C137.28 19.425 137.005 19.4167 136.705 19.4C136.405 19.4 136.105 19.3917 135.805 19.375C135.521 19.375 135.305 19.375 135.155 19.375C135.005 19.375 134.771 19.375 134.455 19.375C134.155 19.3917 133.846 19.4 133.53 19.4C133.213 19.4167 132.93 19.425 132.68 19.425C132.43 19.425 132.288 19.425 132.255 19.425C132.138 19.425 132.038 19.425 131.955 19.425C131.871 19.4417 131.805 19.4333 131.755 19.4C131.705 19.3833 131.663 19.3417 131.63 19.275C131.613 19.225 131.605 19.1333 131.605 19C131.605 18.7833 131.646 18.6417 131.73 18.575C131.83 18.525 131.98 18.4917 132.18 18.475C132.38 18.475 132.588 18.45 132.805 18.4C133.038 18.35 133.246 18.2917 133.43 18.225C133.546 18.175 133.646 18.075 133.73 17.925C133.83 17.7583 133.88 17.4917 133.88 17.125V3.25Z" fill="#A1724B"/>
</svg>
