<svg width="233" height="60" viewBox="0 0 233 60" fill="none" xmlns="http://www.w3.org/2000/svg">
<path d="M69.1313 18.8812H74.7563V41.6249H69.1313V18.8812ZM76.9876 33.0374C76.9876 27.4124 80.4376 24.0562 85.7626 24.0562C91.0876 24.0562 94.5376 27.4124 94.5376 33.0374C94.5376 38.6624 91.1626 42.0374 85.7626 42.0374C80.3626 42.0374 76.9876 38.7562 76.9876 33.0374ZM88.8938 33.0374C88.8938 29.9437 87.6751 28.1249 85.7626 28.1249C83.8501 28.1249 82.6501 29.9999 82.6501 33.0374C82.6501 36.0749 83.8314 37.9124 85.7626 37.9124C87.6939 37.9124 88.8938 36.1874 88.8938 33.0562V33.0374ZM96.6563 42.7312H102.056C102.313 43.3021 102.748 43.7748 103.295 44.0789C103.842 44.3829 104.473 44.5021 105.094 44.4187C107.231 44.4187 108.356 43.2562 108.356 41.5687V38.4187H108.244C107.796 39.3841 107.068 40.193 106.156 40.7412C105.244 41.2893 104.188 41.5514 103.125 41.4937C99.0189 41.4937 96.3001 38.3624 96.3001 32.9812C96.3001 27.5999 98.8876 24.2062 103.2 24.2062C104.296 24.1632 105.379 24.4563 106.304 25.046C107.229 25.6359 107.952 26.4942 108.375 27.5062V24.3749H114V41.4374C114 45.5437 110.381 48.0937 105.038 48.0937C100.069 48.0937 96.9751 45.8624 96.6563 42.7499V42.7312ZM108.375 33.0187C108.375 30.2812 107.119 28.5562 105.131 28.5562C103.144 28.5562 101.925 30.2624 101.925 33.0187C101.925 35.7749 103.125 37.3312 105.131 37.3312C107.138 37.3312 108.375 35.8124 108.375 33.0374V33.0187ZM116.119 33.0187C116.119 27.3937 119.569 24.0374 124.894 24.0374C130.219 24.0374 133.688 27.3937 133.688 33.0187C133.688 38.6437 130.313 42.0187 124.894 42.0187C119.475 42.0187 116.119 38.7562 116.119 33.0374V33.0187ZM128.025 33.0187C128.025 29.9249 126.806 28.1062 124.894 28.1062C122.981 28.1062 121.875 29.9999 121.875 33.0562C121.875 36.1124 123.056 37.9312 124.969 37.9312C126.881 37.9312 128.025 36.1874 128.025 33.0562V33.0187ZM135.825 20.2874C135.81 19.7195 135.965 19.16 136.268 18.6798C136.572 18.1996 137.011 17.8204 137.531 17.5902C138.05 17.3601 138.626 17.2893 139.186 17.3869C139.745 17.4845 140.263 17.7461 140.674 18.1385C141.085 18.5309 141.37 19.0364 141.493 19.591C141.617 20.1457 141.572 20.7243 141.366 21.2538C141.16 21.7831 140.801 22.2395 140.336 22.5648C139.87 22.8901 139.318 23.0699 138.75 23.0812C138.374 23.107 137.996 23.0547 137.64 22.9276C137.285 22.8005 136.96 22.6014 136.685 22.3424C136.41 22.0837 136.192 21.7707 136.044 21.4235C135.896 21.0764 135.822 20.7024 135.825 20.3249V20.2874ZM135.825 24.4124H141.45V41.6249H135.825V24.4124ZM161.869 33.0187C161.869 38.6437 159.375 41.8499 155.1 41.8499C154.004 41.9202 152.913 41.6523 151.974 41.0823C151.035 40.5121 150.293 39.6674 149.85 38.6624H149.738V47.1374H144.113V24.3749H149.738V27.4499H149.85C150.273 26.4282 151 25.5616 151.932 24.9678C152.865 24.374 153.958 24.0819 155.063 24.1312C159.375 24.2062 161.944 27.4312 161.944 33.0562L161.869 33.0187ZM156.244 33.0187C156.244 30.2812 154.988 28.5374 153.019 28.5374C151.05 28.5374 149.794 30.2999 149.775 33.0187C149.756 35.7374 151.05 37.4812 153.019 37.4812C154.988 37.4812 156.244 35.7749 156.244 33.0562V33.0187ZM171.525 24.0187C176.194 24.0187 179.025 26.2312 179.156 29.7749H174.038C174.038 28.5562 173.025 27.7874 171.469 27.7874C169.913 27.7874 169.219 28.3874 169.219 29.2687C169.219 30.1499 169.838 30.4312 171.094 30.6937L174.694 31.4249C178.125 32.1562 179.588 33.5437 179.588 36.1499C179.588 39.7124 176.344 41.9999 171.563 41.9999C166.781 41.9999 163.65 39.7124 163.406 36.2062H168.825C168.994 37.4812 170.006 38.2312 171.656 38.2312C173.306 38.2312 174.056 37.6874 174.056 36.7874C174.056 35.8874 173.531 35.6999 172.181 35.4187L168.938 34.7249C165.581 34.0312 163.819 32.2499 163.819 29.6249C163.856 26.2499 166.875 24.0562 171.525 24.0562V24.0187ZM198.356 41.5874H192.938V38.3812H192.825C192.527 39.4576 191.871 40.3998 190.963 41.0514C190.056 41.7027 188.953 42.0243 187.838 41.9624C186.983 42.011 186.128 41.8756 185.33 41.5653C184.532 41.255 183.81 40.7772 183.213 40.1639C182.616 39.5508 182.157 38.8164 181.868 38.0107C181.579 37.205 181.467 36.3466 181.538 35.4937V24.3749H187.163V34.1999C187.163 36.2437 188.213 37.3312 189.956 37.3312C190.365 37.3319 190.77 37.2455 191.143 37.0773C191.514 36.9091 191.848 36.6631 192.118 36.356C192.386 36.0487 192.589 35.6874 192.707 35.2962C192.825 34.9049 192.861 34.4928 192.806 34.0874V24.3749H198.431L198.356 41.5874ZM201.075 24.3749H206.513V27.6937H206.625C206.923 26.6315 207.566 25.6981 208.451 25.04C209.336 24.3819 210.416 24.0357 211.519 24.0562C212.642 23.9664 213.756 24.3022 214.643 24.997C215.528 25.6919 216.12 26.6947 216.3 27.8062H216.413C216.752 26.6829 217.457 25.7049 218.415 25.0259C219.371 24.347 220.528 24.0057 221.7 24.0562C222.465 24.0305 223.226 24.166 223.935 24.454C224.646 24.7419 225.285 25.1759 225.816 25.7275C226.346 26.2794 226.755 26.9365 227.016 27.6564C227.274 28.3762 227.381 29.1429 227.325 29.9062V41.6249H221.7V31.4062C221.7 29.5312 220.856 28.6687 219.281 28.6687C218.931 28.6657 218.582 28.738 218.261 28.8809C217.941 29.0238 217.654 29.2338 217.421 29.4969C217.189 29.7599 217.014 30.0697 216.911 30.4055C216.808 30.7415 216.78 31.0955 216.825 31.4437V41.6249H211.481V31.3312C211.481 29.6062 210.638 28.6687 209.1 28.6687C208.746 28.6689 208.393 28.7442 208.071 28.8899C207.746 29.0358 207.456 29.2486 207.221 29.5143C206.985 29.78 206.809 30.0927 206.702 30.4319C206.597 30.7709 206.563 31.1285 206.606 31.4812V41.6249H200.981L201.075 24.3749Z" fill="#394149" fill-opacity="0.3"/>
<path d="M53.4 19.9124C52.4458 17.7306 51.183 15.6973 49.65 13.8749C47.3841 11.1006 44.5562 8.83753 41.3526 7.2348C38.1489 5.63208 34.6421 4.72599 31.0631 4.57616C27.4841 4.42633 23.9139 5.03615 20.5875 6.36553C17.2612 7.69488 14.2541 9.71364 11.7641 12.2889C9.27416 14.8642 7.35781 17.9376 6.14122 21.3069C4.92463 24.676 4.43534 28.2648 4.70561 31.8367C4.97589 35.4087 5.99954 38.8829 7.70924 42.0307C9.41894 45.1786 11.7759 47.9287 14.625 50.0999C16.4531 51.521 18.4732 52.6762 20.625 53.5312C23.6419 54.7675 26.8708 55.4043 30.1312 55.4062C36.8614 55.3914 43.311 52.7086 48.0666 47.9461C52.8219 43.1836 55.4951 36.73 55.5 29.9999C55.5049 26.5284 54.7899 23.0935 53.4 19.9124ZM30.1125 9.73115C33.0405 9.73085 35.9331 10.3708 38.5875 11.6062C37.9402 11.8858 37.2596 12.0812 36.5625 12.1874C34.2686 12.5195 32.1437 13.5844 30.5047 15.2234C28.8658 16.8623 27.8008 18.9873 27.4687 21.2812C27.3231 22.5676 26.7379 23.7644 25.8122 24.6697C24.8865 25.5749 23.6769 26.1329 22.3875 26.2499C20.0936 26.582 17.9686 27.647 16.3297 29.2859C14.6908 30.9249 13.6258 33.0498 13.2938 35.3437C13.1813 36.5669 12.6594 37.7165 11.8125 38.6062C10.3512 35.5186 9.69479 32.1114 9.90427 28.7019C10.1137 25.2924 11.1823 21.9912 13.0106 19.1056C14.8388 16.2202 17.3673 13.844 20.3608 12.1984C23.3542 10.5527 26.7154 9.69112 30.1312 9.69365L30.1125 9.73115ZM14.6063 43.1249C14.8313 42.9187 15.0563 42.7312 15.2813 42.5062C16.9494 40.889 18.0201 38.7541 18.3188 36.4499C18.4399 35.1547 19.0181 33.9449 19.95 33.0374C20.8468 32.104 22.0537 31.5305 23.3437 31.4249C25.6376 31.0929 27.7626 30.0279 29.4015 28.3889C31.0404 26.75 32.1054 24.625 32.4375 22.3312C32.5187 20.9765 33.0999 19.7002 34.0687 18.7499C34.9877 17.8346 36.2061 17.282 37.5 17.1937C39.6073 16.9037 41.5727 15.9669 43.125 14.5124C44.8926 15.9788 46.3899 17.7428 47.55 19.7249C47.4787 19.8211 47.397 19.9092 47.3062 19.9874C46.4113 20.929 45.2059 21.5152 43.9125 21.6374C41.6162 21.9637 39.4881 23.0268 37.848 24.6667C36.2081 26.3067 35.145 28.4349 34.8187 30.7312C34.6866 32.0219 34.1122 33.2274 33.1931 34.1431C32.2738 35.059 31.0663 35.6289 29.775 35.7562C27.4744 36.0856 25.3416 37.1485 23.6931 38.7867C22.0447 40.4251 20.9687 42.5514 20.625 44.8499C20.5241 45.7662 20.2093 46.6462 19.7062 47.4187C17.7825 46.2764 16.0596 44.8259 14.6063 43.1249ZM30.1125 50.3624C28.2099 50.3645 26.3164 50.0994 24.4875 49.5749C25.1132 48.4087 25.5199 47.1376 25.6875 45.8249C25.8189 44.537 26.3906 43.3338 27.306 42.4184C28.2214 41.503 29.4246 40.9314 30.7125 40.7999C33.0097 40.4716 35.139 39.4083 36.7817 37.769C38.4242 36.1299 39.492 34.0027 39.825 31.7062C39.9564 30.4182 40.5281 29.215 41.4435 28.2997C42.3589 27.3843 43.5621 26.8126 44.85 26.6812C46.5787 26.4564 48.2265 25.8127 49.65 24.8062C50.4405 27.8022 50.5341 30.9395 49.9237 33.9774C49.3134 37.0152 48.0152 39.8731 46.1289 42.3314C44.2427 44.7895 41.8185 46.7832 39.042 48.1591C36.2657 49.535 33.2111 50.2567 30.1125 50.2687V50.3624Z" fill="#394149" fill-opacity="0.3"/>
</svg>
