<svg width="237" height="60" viewBox="0 0 237 60" fill="none" xmlns="http://www.w3.org/2000/svg">
<path d="M27.2647 11.7354V4.23535H3.61768V55.7648H27.2647V48.2648C22.4206 48.2648 17.7749 46.3404 14.3496 42.9151C10.9243 39.4898 9.00003 34.8442 9.00003 30.0001C9.00003 25.156 10.9243 20.5102 14.3496 17.085C17.7749 13.6597 22.4206 11.7354 27.2647 11.7354Z" fill="#394149" fill-opacity="0.3"/>
<path d="M27.2646 11.7354V48.2648C32.1088 48.2648 36.7545 46.3404 40.1798 42.9151C43.6051 39.4898 45.5294 34.8442 45.5294 30.0001C45.5294 25.156 43.6051 20.5102 40.1798 17.085C36.7545 13.6597 32.1088 11.7354 27.2646 11.7354Z" fill="#394149" fill-opacity="0.3"/>
<path d="M58.8 16.3235H64.0942V41.8235H58.8V16.3235Z" fill="#394149" fill-opacity="0.3"/>
<path d="M67.0589 33.0882C67.0589 31.2537 67.6037 29.4604 68.6241 27.9357C69.6444 26.4109 71.0945 25.2235 72.7905 24.5238C74.4866 23.8242 76.3521 23.6439 78.1506 24.0057C79.9492 24.3674 81.5999 25.2551 82.8935 26.556C84.187 27.8571 85.0653 29.5128 85.4168 31.3135C85.7682 33.1142 85.5772 34.9786 84.8678 36.6706C84.1584 38.3624 82.9628 39.8058 81.4323 40.8173C79.9018 41.829 78.1053 42.3634 76.2707 42.3529C75.0539 42.3625 73.8474 42.129 72.7221 41.6659C71.5967 41.2031 70.5749 40.5201 69.7169 39.6574C68.8589 38.7944 68.182 37.7688 67.7255 36.6408C67.2691 35.5128 67.0425 34.305 67.0589 33.0882ZM80.3295 33.0882C80.3087 32.2973 80.0551 31.53 79.6005 30.8825C79.1459 30.2349 78.5106 29.7357 77.7737 29.4473C77.0369 29.1589 76.2315 29.0942 75.4582 29.2613C74.6848 29.4282 73.9778 29.8195 73.4256 30.3863C72.8735 30.9529 72.5006 31.6698 72.3538 32.4473C72.2069 33.2248 72.2925 34.0283 72.5999 34.7573C72.9073 35.4863 73.4228 36.1087 74.0821 36.5462C74.7412 36.9838 75.5147 37.2173 76.306 37.2177C76.8448 37.2282 77.3798 37.1275 77.8778 36.9217C78.3758 36.7161 78.826 36.4099 79.2003 36.0224C79.5746 35.6349 79.8649 35.1741 80.0532 34.6694C80.2415 34.1645 80.3235 33.6263 80.2942 33.0882H80.3295Z" fill="#394149" fill-opacity="0.3"/>
<path d="M106.429 24.3529V40.9588C106.429 46.8176 101.841 49.3059 97.1999 49.3059C95.5628 49.4402 93.9207 49.1149 92.4586 48.3667C90.9964 47.6185 89.7721 46.4769 88.9234 45.0706L93.3881 42.4941C93.7499 43.2236 94.3254 43.8254 95.0379 44.2195C95.7505 44.6135 96.5662 44.7812 97.3764 44.7C97.8925 44.7635 98.4163 44.7124 98.9102 44.55C99.4043 44.3875 99.8563 44.118 100.234 43.7605C100.612 43.4029 100.906 42.9665 101.095 42.4821C101.284 41.9979 101.364 41.4776 101.329 40.9588V39.3529C100.713 40.0999 99.9315 40.6929 99.0463 41.085C98.1609 41.4771 97.1965 41.6575 96.2293 41.6118C93.8891 41.6118 91.6449 40.6821 89.9902 39.0274C88.3354 37.3728 87.4058 35.1284 87.4058 32.7882C87.4058 30.4481 88.3354 28.2039 89.9902 26.5491C91.6449 24.8944 93.8891 23.9647 96.2293 23.9647C97.1965 23.919 98.1609 24.0994 99.0463 24.4915C99.9315 24.8836 100.713 25.4765 101.329 26.2235V24.4588L106.429 24.3529ZM101.329 32.7353C101.364 31.8911 101.146 31.0555 100.703 30.3362C100.259 29.6169 99.611 29.0467 98.8407 28.6989C98.0706 28.3511 97.2142 28.2417 96.3812 28.3846C95.5485 28.5275 94.7773 28.9163 94.1672 29.5009C93.5572 30.0856 93.1359 30.8395 92.9577 31.6655C92.7795 32.4916 92.8524 33.3519 93.167 34.1361C93.4818 34.9204 94.0239 35.5925 94.7236 36.0662C95.4235 36.5398 96.2491 36.7934 97.094 36.7941C97.6455 36.8338 98.1991 36.7574 98.7189 36.57C99.239 36.3824 99.7141 36.0879 100.113 35.7053C100.512 35.3229 100.827 34.8609 101.036 34.3493C101.246 33.8377 101.346 33.2878 101.329 32.7353Z" fill="#394149" fill-opacity="0.3"/>
<path d="M109.412 33.0882C109.412 31.255 109.956 29.4632 110.974 27.9392C111.993 26.4152 113.441 25.2277 115.135 24.5271C116.829 23.8263 118.693 23.6439 120.49 24.0028C122.288 24.3618 123.939 25.2459 125.234 26.5433C126.529 27.8409 127.41 29.4933 127.765 31.2916C128.121 33.09 127.935 34.9533 127.231 36.6459C126.527 38.3386 125.337 39.7842 123.811 40.8002C122.285 41.8161 120.492 42.3565 118.659 42.3529C117.44 42.3648 116.23 42.133 115.102 41.6714C113.974 41.2098 112.949 40.5275 112.088 39.6646C111.226 38.8016 110.546 37.7755 110.086 36.6462C109.627 35.517 109.398 34.3073 109.412 33.0882ZM122.682 33.0882C122.662 32.2966 122.407 31.5286 121.952 30.8806C121.497 30.2328 120.86 29.7335 120.122 29.4457C119.385 29.1579 118.578 29.0942 117.805 29.2627C117.031 29.431 116.324 29.8242 115.772 30.3926C115.221 30.961 114.849 31.6796 114.705 32.4582C114.56 33.2368 114.648 34.0408 114.958 34.7695C115.268 35.4983 115.786 36.1193 116.448 36.5548C117.109 36.9902 117.884 37.2208 118.676 37.2176C119.215 37.2282 119.75 37.1275 120.248 36.9217C120.746 36.7161 121.196 36.4099 121.571 36.0224C121.945 35.6349 122.235 35.1741 122.424 34.6694C122.612 34.1645 122.694 33.6263 122.665 33.0882H122.682Z" fill="#394149" fill-opacity="0.3"/>
<path d="M130.359 19.6766C130.359 19.0554 130.543 18.448 130.888 17.9315C131.233 17.4149 131.724 17.0123 132.298 16.7745C132.872 16.5368 133.504 16.4746 134.113 16.5958C134.722 16.717 135.282 17.0161 135.721 17.4554C136.161 17.8948 136.46 18.4545 136.581 19.0637C136.702 19.6731 136.64 20.3046 136.402 20.8787C136.164 21.4526 135.762 21.9432 135.245 22.2883C134.729 22.6335 134.121 22.8178 133.5 22.8178C132.67 22.8086 131.876 22.4747 131.289 21.8876C130.702 21.3005 130.368 20.5069 130.359 19.6766ZM130.871 24.3531H136.165V41.8236H130.871V24.3531Z" fill="#394149" fill-opacity="0.3"/>
<path d="M158.824 33.0882C158.883 34.2501 158.712 35.4123 158.32 36.5078C157.929 37.6034 157.324 38.6107 156.542 39.4717C155.76 40.3328 154.815 41.0306 153.762 41.5251C152.709 42.0196 151.568 42.3008 150.406 42.3529C149.42 42.4186 148.431 42.2606 147.515 41.8909C146.598 41.521 145.777 40.9491 145.112 40.2176V48.847H139.818V24.3529H145.112V25.9941C145.777 25.2647 146.599 24.6954 147.516 24.3287C148.433 23.9618 149.421 23.8073 150.406 23.8764C151.564 23.9285 152.699 24.2082 153.749 24.6993C154.798 25.1904 155.741 25.8836 156.523 26.739C157.304 27.5943 157.91 28.5953 158.305 29.6848C158.699 30.7741 158.876 31.9306 158.824 33.0882ZM153.529 33.0882C153.509 32.2685 153.246 31.4733 152.775 30.8022C152.305 30.1311 151.646 29.6137 150.882 29.3153C150.119 29.0167 149.284 28.9503 148.483 29.1241C147.681 29.298 146.95 29.7046 146.378 30.2927C145.807 30.8809 145.422 31.6246 145.272 32.4307C145.122 33.2366 145.213 34.069 145.533 34.8236C145.854 35.578 146.39 36.2211 147.075 36.6721C147.76 37.1232 148.562 37.362 149.382 37.3588C149.944 37.3826 150.504 37.2875 151.026 37.0796C151.549 36.8717 152.021 36.5558 152.413 36.1526C152.804 35.7494 153.106 35.2678 153.299 34.7398C153.491 34.2116 153.57 33.6488 153.529 33.0882Z" fill="#394149" fill-opacity="0.3"/>
<path d="M174.935 36.5825C174.935 40.606 171.406 42.3178 167.665 42.3178C166.139 42.455 164.607 42.1316 163.267 41.3892C161.927 40.6468 160.84 39.5195 160.147 38.1531L164.7 35.5766C164.88 36.2062 165.271 36.7549 165.808 37.1308C166.344 37.5066 166.994 37.6868 167.647 37.6413C168.9 37.6413 169.535 37.253 169.535 36.5472C169.535 34.6236 160.941 35.6472 160.941 29.5942C160.941 25.7825 164.153 23.8766 167.788 23.8766C169.17 23.8146 170.543 24.1282 171.761 24.7838C172.979 25.4394 173.996 26.4126 174.706 27.6001L170.153 30.0001C169.952 29.5448 169.623 29.1576 169.207 28.8852C168.79 28.6127 168.303 28.4668 167.806 28.4648C166.888 28.4648 166.341 28.8178 166.341 29.4354C166.341 31.4472 174.935 30.1236 174.935 36.5825Z" fill="#394149" fill-opacity="0.3"/>
<path d="M194.118 24.353V41.8236H188.824V40.1824C188.222 40.909 187.458 41.4837 186.595 41.8609C185.73 42.238 184.789 42.4065 183.847 42.353C180.318 42.353 177.3 39.8295 177.3 35.1177V24.353H182.594V34.3236C182.552 34.7404 182.601 35.1613 182.739 35.5573C182.877 35.9531 183.097 36.3146 183.387 36.6167C183.678 36.9186 184.031 37.154 184.421 37.3067C184.811 37.4591 185.229 37.5251 185.647 37.5001C187.553 37.5001 188.894 36.3707 188.894 33.9707V24.353H194.118Z" fill="#394149" fill-opacity="0.3"/>
<path d="M224.118 31.094V41.8234H218.824V31.5528C218.824 29.7881 217.994 28.694 216.318 28.694C214.641 28.694 213.582 29.9117 213.582 31.9764V41.8234H208.288V31.5528C208.288 29.7881 207.459 28.694 205.782 28.694C204.106 28.694 203.047 29.9117 203.047 31.9764V41.8234H197.753V24.3528H203.047V25.9587C203.596 25.2493 204.311 24.6874 205.131 24.3239C205.95 23.9604 206.848 23.8065 207.741 23.8764C208.636 23.8296 209.529 24.0167 210.33 24.4188C211.131 24.821 211.814 25.4247 212.312 26.1705C212.894 25.3912 213.664 24.7721 214.549 24.371C215.434 23.9697 216.408 23.7996 217.376 23.8764C221.506 23.8764 224.118 26.7352 224.118 31.094Z" fill="#394149" fill-opacity="0.3"/>
<path d="M228.565 24.2471C230.709 24.2471 232.447 22.5089 232.447 20.3648C232.447 18.2207 230.709 16.4824 228.565 16.4824C226.421 16.4824 224.682 18.2207 224.682 20.3648C224.682 22.5089 226.421 24.2471 228.565 24.2471Z" fill="#394149" fill-opacity="0.3"/>
</svg>
