<svg width="121" height="60" viewBox="0 0 121 60" fill="none" xmlns="http://www.w3.org/2000/svg">
<g clip-path="url(#clip0_101_103)">
<path d="M0.0357666 53.1147H11.2024V49.935H3.44084V35.0879H0.0357666V53.1147Z" fill="#394149" fill-opacity="0.3"/>
<path d="M17.9128 53.4905C19.2649 53.4905 20.4542 53.19 21.4807 52.5891C22.5155 51.9799 23.3209 51.1411 23.8968 50.0729C24.4809 48.9963 24.7731 47.7569 24.7731 46.3549C24.7731 44.9611 24.4851 43.7302 23.9093 42.6619C23.3334 41.5853 22.528 40.7424 21.4931 40.1331C20.4667 39.5239 19.2732 39.2192 17.9128 39.2192C16.5775 39.2192 15.3966 39.5197 14.3701 40.1206C13.3436 40.7215 12.5382 41.5602 11.9539 42.6369C11.3698 43.7051 11.0776 44.9444 11.0776 46.3549C11.0776 47.7486 11.3614 48.9838 11.9289 50.0604C12.5048 51.1286 13.306 51.9674 14.3325 52.5766C15.3591 53.1859 16.5525 53.4905 17.9128 53.4905ZM17.9128 50.3108C16.8529 50.3108 16.0476 49.9561 15.4968 49.2467C14.9542 48.529 14.683 47.565 14.683 46.3549C14.683 45.1781 14.9417 44.2267 15.4592 43.5006C15.9849 42.7662 16.8028 42.3989 17.9128 42.3989C18.9895 42.3989 19.799 42.7579 20.3414 43.4756C20.8923 44.1933 21.1677 45.153 21.1677 46.3549C21.1677 47.515 20.8965 48.4663 20.3539 49.2091C19.8198 49.9435 19.0061 50.3108 17.9128 50.3108Z" fill="#394149" fill-opacity="0.3"/>
<path d="M31.5068 53.4905C32.1411 53.4905 32.7253 53.4153 33.2595 53.2651C33.8019 53.1149 34.2943 52.9021 34.7366 52.6267V53.9912C34.7534 54.492 34.6239 54.9092 34.3485 55.2431C34.0815 55.5853 33.7226 55.8398 33.272 56.0067C32.8213 56.182 32.3414 56.2697 31.8324 56.2697C31.3566 56.2697 30.9143 56.1653 30.5054 55.9567C30.1047 55.7481 29.7959 55.4434 29.5789 55.0428L26.4243 56.5701C26.9417 57.4464 27.6803 58.1516 28.6401 58.6857C29.5999 59.2282 30.6556 59.4994 31.8073 59.4994C32.8004 59.4994 33.7226 59.3659 34.5739 59.0988C35.4252 58.8401 36.1429 58.4437 36.7271 57.9095C37.3196 57.3754 37.7244 56.6953 37.9414 55.869C38.0165 55.5769 38.0665 55.2806 38.0916 54.9802C38.125 54.6881 38.1417 54.3751 38.1417 54.0413V39.5948H35.1623V40.346C34.7032 39.987 34.1816 39.7116 33.5974 39.5197C33.0215 39.3194 32.3832 39.2192 31.6821 39.2192C30.3885 39.2192 29.2618 39.5281 28.3021 40.1456C27.3423 40.7632 26.5953 41.6103 26.0612 42.6869C25.5354 43.7551 25.2726 44.9779 25.2726 46.3549C25.2726 47.7069 25.5313 48.9211 26.0487 49.9978C26.5745 51.0744 27.3047 51.9257 28.2394 52.5516C29.1742 53.1775 30.2633 53.4905 31.5068 53.4905ZM32.0576 50.461C31.3232 50.461 30.7224 50.2773 30.2549 49.9102C29.7876 49.543 29.4412 49.0506 29.216 48.433C28.9906 47.807 28.8779 47.1144 28.8779 46.3549C28.8779 45.6037 28.9947 44.9194 29.2285 44.3018C29.4622 43.6759 29.821 43.1793 30.305 42.8121C30.7974 42.4365 31.4234 42.2487 32.1828 42.2487C33.2511 42.2487 34.0147 42.6285 34.4737 43.388C34.9328 44.139 35.1623 45.1281 35.1623 46.3549C35.1623 47.5817 34.9285 48.5748 34.4612 49.3343C34.0022 50.0854 33.201 50.461 32.0576 50.461Z" fill="#394149" fill-opacity="0.3"/>
<path d="M46.2295 53.4905C47.5815 53.4905 48.7708 53.19 49.7973 52.5891C50.8322 51.9799 51.6375 51.1411 52.2134 50.0729C52.7976 48.9963 53.0897 47.7569 53.0897 46.3549C53.0897 44.9611 52.8017 43.7302 52.2259 42.6619C51.65 41.5853 50.8446 40.7424 49.8098 40.1331C48.7833 39.5239 47.5898 39.2192 46.2295 39.2192C44.8941 39.2192 43.7132 39.5197 42.6867 40.1206C41.6602 40.7215 40.8548 41.5602 40.2706 42.6369C39.6864 43.7051 39.3943 44.9444 39.3943 46.3549C39.3943 47.7486 39.6781 48.9838 40.2456 50.0604C40.8214 51.1286 41.6226 51.9674 42.6491 52.5766C43.6757 53.1859 44.8691 53.4905 46.2295 53.4905ZM46.2295 50.3108C45.1695 50.3108 44.3642 49.9561 43.8133 49.2467C43.2709 48.529 42.9997 47.565 42.9997 46.3549C42.9997 45.1781 43.2584 44.2267 43.7759 43.5006C44.3016 42.7662 45.1195 42.3989 46.2295 42.3989C47.3061 42.3989 48.1156 42.7579 48.6581 43.4756C49.2089 44.1933 49.4843 45.153 49.4843 46.3549C49.4843 47.515 49.213 48.4663 48.6706 49.2091C48.1365 49.9435 47.3227 50.3108 46.2295 50.3108Z" fill="#394149" fill-opacity="0.3"/>
<path d="M54.5907 37.7171H57.9957V34.7126H54.5907V37.7171ZM54.5907 53.115H57.9957V39.5949H54.5907V53.115Z" fill="#394149" fill-opacity="0.3"/>
<path d="M60.2214 59.1239H63.6516V52.6267C64.0939 52.9021 64.5822 53.1149 65.1163 53.2651C65.6587 53.4153 66.2471 53.4905 66.8813 53.4905C68.1249 53.4905 69.2141 53.1775 70.1488 52.5516C71.0835 51.9257 71.8095 51.0743 72.327 49.9978C72.8527 48.9211 73.1156 47.7069 73.1156 46.3549C73.1156 44.9779 72.8486 43.7551 72.3145 42.6869C71.7886 41.6103 71.0459 40.7632 70.0861 40.1456C69.1264 39.5281 67.9997 39.2192 66.7062 39.2192C66.005 39.2192 65.3625 39.3194 64.7782 39.5197C64.2024 39.7116 63.6849 39.987 63.226 40.346V39.5948H60.2214V59.1239ZM66.3305 50.461C65.1955 50.461 64.3944 50.0854 63.927 49.3343C63.4596 48.5748 63.226 47.5817 63.226 46.3549C63.226 45.1281 63.4554 44.139 63.9145 43.388C64.3818 42.6285 65.1455 42.2487 66.2054 42.2487C66.9648 42.2487 67.5866 42.4365 68.0706 42.8121C68.563 43.1793 68.9261 43.6759 69.1598 44.3018C69.3935 44.9194 69.5103 45.6037 69.5103 46.3549C69.5103 47.1144 69.3976 47.807 69.1723 48.433C68.9469 49.0506 68.6006 49.543 68.1333 49.9102C67.6659 50.2773 67.065 50.461 66.3305 50.461Z" fill="#394149" fill-opacity="0.3"/>
<path d="M79.284 53.4905C81.0533 53.4905 82.4387 53.0941 83.4402 52.3012C84.4417 51.5083 84.9424 50.4193 84.9424 49.0339C84.9424 47.9823 84.617 47.1519 83.966 46.5427C83.3233 45.9334 82.23 45.4284 80.6861 45.0279C79.6345 44.7608 78.8501 44.5438 78.3326 44.3769C77.8235 44.2101 77.4855 44.0473 77.3186 43.8887C77.16 43.7302 77.0808 43.534 77.0808 43.3003C77.0808 42.9081 77.2685 42.6077 77.6441 42.3989C78.028 42.1903 78.5329 42.1069 79.1588 42.1486C80.4858 42.2487 81.2119 42.8163 81.337 43.8511L84.8172 43.2252C84.642 41.9984 84.041 41.0261 83.0146 40.3084C81.9881 39.5823 80.6777 39.2192 79.0837 39.2192C77.4479 39.2192 76.1418 39.6031 75.1654 40.3709C74.1889 41.1387 73.7007 42.1736 73.7007 43.4756C73.7007 44.5105 74.0387 45.3283 74.7147 45.9292C75.3907 46.5218 76.5549 47.0308 78.2074 47.4565C79.1839 47.7152 79.9016 47.9239 80.3606 48.0824C80.828 48.241 81.1284 48.4038 81.262 48.5707C81.3954 48.7292 81.4622 48.9421 81.4622 49.2091C81.4622 49.6347 81.2953 49.9686 80.9615 50.2106C80.6276 50.4443 80.152 50.5611 79.5344 50.5611C78.7833 50.5611 78.1615 50.3817 77.6691 50.0228C77.185 49.664 76.8721 49.1674 76.7302 48.5331L73.25 49.0588C73.4753 50.4693 74.1097 51.5626 75.1529 52.3388C76.2045 53.1066 77.5815 53.4905 79.284 53.4905Z" fill="#394149" fill-opacity="0.3"/>
<path d="M91.2238 53.5153C92.2002 53.5153 93.0515 53.3525 93.7776 53.027C94.5037 52.7015 95.113 52.2676 95.6053 51.7251V53.1146H98.6095V39.5945H95.1796V46.4547C95.1796 47.2893 95.0837 47.9653 94.8917 48.4827C94.7081 48.9919 94.4703 49.3799 94.1781 49.6469C93.8861 49.9057 93.5731 50.0809 93.2393 50.1728C92.9054 50.2645 92.5925 50.3105 92.3004 50.3105C91.5743 50.3105 91.0109 50.1477 90.6104 49.8222C90.2181 49.4967 89.9344 49.092 89.7591 48.608C89.5838 48.1238 89.4795 47.644 89.4461 47.1682C89.4128 46.6842 89.396 46.2878 89.396 45.979V39.5945H85.9409V47.1808C85.9409 47.4061 85.9576 47.765 85.991 48.2574C86.0243 48.7498 86.1203 49.2965 86.2789 49.8974C86.4375 50.4899 86.7004 51.0616 87.0676 51.6124C87.4432 52.1632 87.9648 52.618 88.6325 52.9769C89.3001 53.3358 90.1638 53.5153 91.2238 53.5153Z" fill="#394149" fill-opacity="0.3"/>
<path d="M100.582 53.1147H104.011V44.9274C104.011 44.1514 104.224 43.5213 104.65 43.0371C105.084 42.5447 105.655 42.2986 106.365 42.2986C107.108 42.2986 107.688 42.549 108.105 43.0497C108.53 43.5421 108.744 44.2348 108.744 45.1278V53.1147H112.149V44.9274C112.149 44.1514 112.361 43.5213 112.787 43.0371C113.221 42.5447 113.792 42.2986 114.502 42.2986C115.245 42.2986 115.824 42.549 116.242 43.0497C116.667 43.5421 116.881 44.2348 116.881 45.1278V53.1147H120.285V44.2264C120.285 42.7492 119.889 41.5558 119.096 40.6461C118.312 39.7281 117.147 39.269 115.603 39.269C114.736 39.269 113.939 39.4568 113.212 39.8324C112.486 40.208 111.907 40.7212 111.472 41.3722C111.122 40.738 110.621 40.2288 109.97 39.8449C109.319 39.461 108.509 39.269 107.542 39.269C106.723 39.269 105.973 39.4318 105.288 39.7573C104.604 40.0744 104.036 40.5126 103.585 41.0717V39.5945H100.582V53.1147Z" fill="#394149" fill-opacity="0.3"/>
<path d="M0 14.2623C6.88616e-07 6.38544 6.38545 -6.88613e-07 14.2623 0C18.5328 3.73348e-07 22.365 1.87695 24.9789 4.85092C29.7214 10.1754 33.6431 9.89528 37.8078 5.96454C39.8512 4.03518 42.6072 2.85246 45.6393 2.85246C51.9408 2.85247 57.0492 7.96082 57.0492 14.2623C57.0492 20.5638 51.9408 25.6721 45.6393 25.6721C42.6072 25.6721 39.8512 24.4893 37.8078 22.56C33.6441 18.6302 29.7233 18.3492 24.9823 23.6697C22.3684 26.646 18.5347 28.5246 14.2623 28.5246C6.38545 28.5246 -6.88614e-07 22.1391 0 14.2623Z" fill="#394149" fill-opacity="0.3"/>
</g>
<defs>
<clipPath id="clip0_101_103">
<rect width="120.984" height="60" fill="white"/>
</clipPath>
</defs>
</svg>
